<svg width="180" height="61" viewBox="0 0 180 61" fill="none" xmlns="http://www.w3.org/2000/svg">
<path fill-rule="evenodd" clip-rule="evenodd" d="M124.916 0.773499H174.347C177.134 0.773499 179.415 3.05414 179.415 5.84204V54.9441C179.415 57.7314 177.134 60.0118 174.347 60.0118H125.245C122.457 60.0118 120.177 57.7314 120.177 54.9441V5.51324C120.177 2.90654 122.309 0.773499 124.916 0.773499Z" fill="#E31E24" stroke="#EC1C24" stroke-width="0.216" stroke-miterlimit="22.9256"/>
<path fill-rule="evenodd" clip-rule="evenodd" d="M164.124 15.4397H135.468V20.4422H159.148V44.2504H164.124V15.4397Z" fill="white"/>
<path fill-rule="evenodd" clip-rule="evenodd" d="M155.601 24.2237H135.468V29.2262H150.625V44.2679H155.601V24.2237Z" fill="white"/>
<path fill-rule="evenodd" clip-rule="evenodd" d="M146.399 33.504H135.653V44.2504H146.399V33.504Z" fill="white"/>
<path d="M12.4394 41.2026C11.8625 41.4489 11.3004 41.641 10.7584 41.7646C10.2111 41.8877 9.67361 41.9518 9.13161 41.9518C8.07151 41.9518 7.05612 41.7401 6.08492 41.3109C5.11382 40.8823 4.22142 40.256 3.41302 39.4377C2.45182 38.447 1.73212 37.2439 1.26382 35.834C0.790417 34.424 0.554016 32.7579 0.554016 30.8304C0.554016 27.6459 1.34262 25.0528 2.91502 23.0564C4.48762 21.0599 6.49912 20.059 8.94402 20.059C9.55032 20.059 10.147 20.1083 10.7287 20.2121C11.3103 20.3104 11.8821 20.4584 12.4394 20.6506V25.7084C12.0746 25.5063 11.7097 25.3535 11.3401 25.2453C10.9753 25.1415 10.6252 25.0873 10.2899 25.0873C9.11182 25.0873 8.22431 25.5803 7.61791 26.5662C7.01161 27.5521 6.70602 29.0066 6.70602 30.9194C6.70602 32.7284 7.00681 34.1285 7.60831 35.1144C8.20951 36.1003 9.06251 36.5934 10.1569 36.5934C10.5611 36.5934 10.9554 36.5342 11.335 36.4209C11.7146 36.3024 12.0845 36.1347 12.4394 35.9128V41.2026ZM14.2436 41.5329V20.4485H20.1346V28.0156H22.6486V20.4485H28.5249V41.5329H22.6486V33.2855H20.1346V41.5329H14.2436ZM31.1526 41.5329V20.4485H37.0435V41.5329H31.1526ZM47.9529 41.5329H42.047V25.7924H38.5521V20.4485H51.4481V25.7924H47.9529V41.5329ZM52.7446 41.5329V20.4485H58.6651V29.258L61.8892 20.4485H67.9281L63.5803 30.1794L68.0415 41.5329H61.6723L58.6651 31.9446V41.5329H52.7446ZM66.9471 41.5329L71.5664 20.4485H78.1966L82.806 41.5329H77.0727L76.624 38.4269H73.1439L72.6951 41.5329H66.9471ZM73.7204 34.1678H76.0621L74.8739 26.3545L73.7204 34.1678ZM89.6188 24.826V29.8492C90.4174 29.8296 90.999 29.6225 91.3687 29.2234C91.7338 28.824 91.916 28.1929 91.916 27.3351C91.916 26.502 91.7434 25.8711 91.3933 25.4521C91.0483 25.0328 90.5356 24.826 89.8504 24.826H89.6188ZM83.7276 41.5329V20.4485H90.501C92.7936 20.4485 94.5976 21.0301 95.9191 22.1938C97.2352 23.3619 97.8957 24.9445 97.8957 26.9458C97.8957 28.1783 97.6001 29.2332 97.0082 30.1006C96.4169 30.9734 95.5245 31.6686 94.3414 32.191L98.5168 41.5329H92.2757L89.6188 33.3741V41.5329H83.7276ZM98.3048 41.5329L102.924 20.4485H109.554L114.164 41.5329H108.43L107.982 38.4269H104.501L104.053 41.5329H98.3048ZM105.078 34.1678H107.42L106.232 26.3545L105.078 34.1678Z" fill="#2C2E35"/>
<path d="M11.3846 46.9272V46.5669H15.7607V46.9272H15.2941C14.8091 46.9272 14.4358 47.1423 14.1745 47.5752C14.0469 47.777 13.9817 48.2396 13.9817 48.9704V54.2961C13.9817 55.6151 13.8604 56.6367 13.6146 57.3607C13.3691 58.088 12.8838 58.7128 12.1653 59.2318C11.4438 59.7506 10.4642 60.0118 9.22632 60.0118C7.87642 60.0118 6.85342 59.7638 6.15672 59.2646C5.45682 58.7688 4.96241 58.1011 4.66991 57.2615C4.47711 56.686 4.37791 55.6086 4.37791 54.0251V48.891C4.37791 48.0843 4.27531 47.5556 4.06381 47.3042C3.85521 47.053 3.51621 46.9272 3.04991 46.9272H2.58331V46.5669H7.92352V46.9272H7.45042C6.94042 46.9272 6.57341 47.0961 6.35571 47.4397C6.20341 47.671 6.12891 48.1571 6.12891 48.891V54.6167C6.12891 55.1258 6.17202 55.7112 6.25932 56.3688C6.34972 57.0267 6.50821 57.5424 6.73801 57.9095C6.96851 58.2763 7.30132 58.5804 7.73672 58.8185C8.17212 59.0598 8.70391 59.1788 9.33511 59.1788C10.1436 59.1788 10.8656 58.9903 11.5028 58.6167C12.1406 58.2434 12.5791 57.7637 12.8121 57.1786C13.0454 56.5935 13.1636 55.6051 13.1636 54.2101V48.891C13.1636 48.071 13.0766 47.5587 12.9088 47.3538C12.6693 47.0695 12.3178 46.9272 11.8515 46.9272H11.3846ZM15.7142 46.5669H19.0665L26.6211 56.4184V48.8445C26.6211 48.0381 26.5341 47.5324 26.366 47.334C26.1389 47.063 25.7843 46.9272 25.2993 46.9272H24.8699V46.5669H29.1711V46.9272H28.7326C28.2105 46.9272 27.8403 47.096 27.6226 47.4297C27.4888 47.638 27.4236 48.1075 27.4236 48.8445V59.9127H27.0939L18.9483 49.3372V57.4267C18.9483 58.2332 19.0294 58.736 19.194 58.9376C19.4242 59.2086 19.7822 59.3441 20.261 59.3441H20.6964V59.7012H16.3982V59.3441H16.8243C17.3529 59.3441 17.726 59.1757 17.9468 58.8384C18.0809 58.6334 18.1461 58.1606 18.1461 57.4267V48.2925C17.7886 47.8464 17.5148 47.5522 17.3311 47.4099C17.1446 47.2679 16.8739 47.1355 16.5164 47.0134C16.3393 46.9572 16.0717 46.9272 15.7142 46.9272V46.5669ZM35.1956 59.3441V59.7012H29.8991V59.3441H30.3376C30.8476 59.3441 31.2175 59.1852 31.4479 58.868C31.5939 58.6631 31.6688 58.1637 31.6688 57.3771V48.891C31.6688 48.2266 31.6282 47.7869 31.5506 47.5752C31.4882 47.4133 31.364 47.2744 31.1772 47.1588C30.9099 47.0034 30.6299 46.9272 30.3376 46.9272H29.8991V46.5669H35.1956V46.9272H34.7477C34.2437 46.9272 33.8769 47.0859 33.6468 47.4003C33.4946 47.6084 33.4166 48.1044 33.4166 48.891V57.3771C33.4166 58.0415 33.4569 58.4812 33.5348 58.6929C33.5969 58.8548 33.7244 58.9937 33.9172 59.1094C34.1786 59.2647 34.4552 59.3441 34.7477 59.3441H35.1956ZM48.8983 46.5669V46.9272C48.4601 47.01 48.1304 47.1588 47.9033 47.3702C47.583 47.6877 47.297 48.1739 47.0481 48.825L42.7375 60.002H42.4016L37.7737 48.6793C37.5342 48.0976 37.3695 47.7438 37.27 47.6149C37.1209 47.4133 36.9341 47.2576 36.7102 47.1454C36.4894 47.0297 36.1909 46.9604 35.8144 46.9272V46.5669H40.8624V46.9272C40.2898 46.9836 39.9198 47.0893 39.7486 47.2347C39.5805 47.3836 39.4938 47.5752 39.4938 47.8068C39.4938 48.1308 39.6338 48.6331 39.9136 49.3174L43.0578 57.0168L45.9721 49.4169C46.2581 48.6662 46.4013 48.1472 46.4013 47.8564C46.4013 47.6679 46.3142 47.4892 46.1368 47.3174C45.9596 47.1488 45.6643 47.0267 45.2442 46.9572C45.213 46.9504 45.1634 46.9405 45.0888 46.9272V46.5669H48.8983ZM53.0255 47.2844V52.4745H55.7406C56.4467 52.4745 56.9164 52.3621 57.1525 52.1375C57.4697 51.8399 57.644 51.3175 57.6814 50.5672H58.0174V55.1389H57.6814C57.5975 54.5011 57.5102 54.0909 57.4266 53.9092C57.3178 53.6844 57.1372 53.5061 56.8883 53.3771C56.6397 53.2482 56.257 53.1821 55.7406 53.1821H53.0255V57.5126C53.0255 58.0946 53.0505 58.4483 53.0973 58.5739C53.1469 58.6995 53.2311 58.7987 53.3524 58.8747C53.4734 58.9475 53.7067 58.9838 54.0457 58.9838H56.142C56.8387 58.9838 57.3487 58.9342 57.6627 58.8284C57.9802 58.7258 58.2815 58.5243 58.5741 58.2201C58.9502 57.8202 59.336 57.2151 59.7309 56.4084H60.0946L59.0313 59.7012H49.508V59.3441H49.9468C50.236 59.3441 50.5129 59.2681 50.774 59.1193C50.9699 59.0167 51.1005 58.8616 51.172 58.6564C51.2406 58.4483 51.2746 58.0251 51.2746 57.387V48.8547C51.2746 48.0216 51.1969 47.5091 51.0382 47.3141C50.8205 47.0564 50.4568 46.9272 49.9468 46.9272H49.508V46.5669H59.0313L59.1679 49.4432H58.8105C58.6829 48.7521 58.5429 48.2792 58.3873 48.0215C58.2319 47.7636 58.0049 47.5654 57.7002 47.4297C57.4575 47.3339 57.0281 47.2844 56.4155 47.2844H53.0255ZM73.1354 59.7012H69.8356L65.6525 53.5622C65.3446 53.5722 65.0926 53.5787 64.897 53.5787C64.8191 53.5787 64.7352 53.5787 64.6419 53.5753C64.5518 53.5722 64.4585 53.5688 64.3587 53.5622V57.3771C64.3587 58.2034 64.446 58.7159 64.6139 58.9177C64.8471 59.2021 65.1924 59.3441 65.6525 59.3441H66.1378V59.7012H60.8446V59.3441H61.3078C61.8305 59.3441 62.2036 59.1624 62.4275 58.8021C62.5551 58.6003 62.6203 58.1243 62.6203 57.3771V48.891C62.6203 48.0647 62.5332 47.5522 62.3651 47.3538C62.1287 47.0695 61.7744 46.9272 61.3078 46.9272H60.8446V46.5669H65.3446C66.6571 46.5669 67.6245 46.6695 68.2465 46.8745C68.8684 47.076 69.397 47.4496 69.8327 47.9953C70.2647 48.5438 70.4827 49.1918 70.4827 49.9489C70.4827 50.7557 70.2369 51.4564 69.7392 52.0514C69.2448 52.6432 68.4797 53.0631 67.4409 53.3077L69.9912 57.0764C70.5729 57.9423 71.0766 58.5178 71.4933 58.8021C71.9134 59.083 72.4604 59.2647 73.1354 59.3441V59.7012ZM64.3587 52.9507C64.4769 52.9507 64.5764 52.9508 64.6606 52.9539C64.7445 52.957 64.8163 52.9604 64.869 52.9604C66.0476 52.9604 66.9371 52.6895 67.5341 52.1472C68.1345 51.6049 68.433 50.9141 68.433 50.0745C68.433 49.2547 68.1903 48.5868 67.7084 48.0743C67.2263 47.5618 66.5856 47.3042 65.7894 47.3042C65.4379 47.3042 64.962 47.3668 64.3587 47.4893V52.9507ZM81.5262 46.2695V50.8118H81.1906C81.0783 49.939 80.8827 49.2448 80.6027 48.7292C80.3198 48.2099 79.9153 47.8002 79.3929 47.4991C78.8704 47.195 78.3324 47.0431 77.7726 47.0431C77.1413 47.0431 76.6186 47.2481 76.205 47.658C75.7917 48.0678 75.5862 48.5341 75.5862 49.0563C75.5862 49.4563 75.7166 49.8233 75.978 50.1505C76.3544 50.6366 77.2501 51.2811 78.6652 52.0876C79.8189 52.7455 80.6089 53.2516 81.029 53.605C81.4519 53.9557 81.7782 54.3721 82.0055 54.848C82.2326 55.3277 82.3477 55.8266 82.3477 56.349C82.3477 57.3442 81.9834 58.2003 81.2589 58.9209C80.5312 59.6417 79.5981 60.002 78.4569 60.002C78.096 60.002 77.7601 59.9722 77.4429 59.9127C77.2564 59.8829 76.8643 59.7639 76.2736 59.5623C75.6826 59.3574 75.3061 59.2548 75.1477 59.2548C74.9952 59.2548 74.877 59.3044 74.7868 59.4005C74.6998 59.4963 74.6346 59.6978 74.591 60.002H74.2551V55.4994H74.591C74.7497 56.4417 74.964 57.1458 75.2316 57.6152C75.4992 58.0812 75.9065 58.4716 76.457 58.782C77.0041 59.0895 77.6076 59.2451 78.2641 59.2451C79.0229 59.2451 79.623 59.0334 80.0647 58.6068C80.5032 58.1804 80.724 57.6779 80.724 57.0962C80.724 56.7722 80.6401 56.4482 80.4751 56.1177C80.3073 55.7869 80.046 55.4827 79.6945 55.1987C79.4583 55.0034 78.8112 54.5938 77.7539 53.9622C76.6965 53.3341 75.9471 52.8315 75.4992 52.4581C75.0513 52.0811 74.7151 51.6681 74.4818 51.2183C74.2519 50.7653 74.1369 50.2661 74.1369 49.7241C74.1369 48.7819 74.4759 47.972 75.157 47.2912C75.8382 46.61 76.7028 46.2695 77.7539 46.2695C78.4104 46.2695 79.1068 46.4381 79.8407 46.782C80.1797 46.9438 80.4224 47.0229 80.5593 47.0229C80.7178 47.0229 80.8484 46.9737 80.9479 46.8745C81.0474 46.7718 81.1282 46.5703 81.1906 46.2695H81.5262ZM89.1089 59.3441V59.7012H83.8123V59.3441H84.2509C84.7608 59.3441 85.131 59.1852 85.3612 58.868C85.5075 58.6631 85.582 58.1637 85.582 57.3771V48.891C85.582 48.2266 85.5415 47.7869 85.4638 47.5752C85.4017 47.4133 85.277 47.2744 85.0908 47.1588C84.8229 47.0034 84.5431 46.9272 84.2509 46.9272H83.8123V46.5669H89.1089V46.9272H88.6607C88.1573 46.9272 87.7902 47.0859 87.56 47.4003C87.4075 47.6084 87.3299 48.1044 87.3299 48.891V57.3771C87.3299 58.0415 87.3704 58.4812 87.4481 58.6929C87.5101 58.8548 87.6377 58.9937 87.8305 59.1094C88.0918 59.2647 88.3685 59.3441 88.6607 59.3441H89.1089ZM100.361 46.5669L100.498 49.6482H100.15C100.084 49.1059 99.9939 48.719 99.876 48.4843C99.6895 48.1109 99.4372 47.8363 99.1265 47.658C98.8124 47.4794 98.4017 47.3901 97.8917 47.3901H96.1501V57.4267C96.1501 58.2332 96.234 58.736 96.3959 58.9376C96.6261 59.2086 96.9835 59.3441 97.4626 59.3441H97.8917V59.7012H92.6513V59.3441H93.0896C93.6123 59.3441 93.9822 59.1757 94.1999 58.8384C94.3337 58.6334 94.4023 58.1606 94.4023 57.4267V47.3901H92.9155C92.3404 47.3901 91.9296 47.4363 91.6873 47.5259C91.3698 47.648 91.0994 47.8861 90.8754 48.2331C90.6515 48.5835 90.5177 49.0529 90.474 49.6482H90.1288L90.2753 46.5669H100.361ZM109.853 46.5669H114.164V46.9272H113.927C113.769 46.9272 113.539 47 113.234 47.1489C112.932 47.2977 112.655 47.5091 112.407 47.7869C112.158 48.0647 111.85 48.5174 111.486 49.1456L108.506 54.1309V57.4267C108.506 58.2332 108.59 58.736 108.762 58.9376C108.992 59.2086 109.356 59.3441 109.853 59.3441H110.254V59.7012H105.008V59.3441H105.443C105.965 59.3441 106.339 59.1757 106.556 58.8384C106.69 58.6334 106.756 58.1606 106.756 57.4267V54.316L103.365 48.8151C102.968 48.1702 102.694 47.7671 102.551 47.6049C102.408 47.4431 102.112 47.248 101.664 47.0229C101.543 46.9571 101.366 46.9272 101.136 46.9272V46.5669H106.42V46.9272H106.146C105.86 46.9272 105.599 46.9966 105.359 47.1389C105.117 47.2809 104.998 47.4961 104.998 47.7801C104.998 48.0117 105.182 48.4315 105.555 49.0364L108.133 53.2714L110.556 49.2215C110.92 48.6132 111.104 48.1637 111.104 47.866C111.104 47.6843 111.06 47.5225 110.97 47.3802C110.883 47.2381 110.755 47.1289 110.594 47.0461C110.429 46.9668 110.183 46.9272 109.853 46.9272V46.5669Z" fill="#2C2E35"/>
</svg>
